<svg xmlns:dc="http://purl.org/dc/elements/1.1/" xmlns:cc="http://creativecommons.org/ns#" xmlns:rdf="http://www.w3.org/1999/02/22-rdf-syntax-ns#" xmlns:svg="http://www.w3.org/2000/svg" xmlns="http://www.w3.org/2000/svg" viewBox="0 0 762 762" fill="none" width="150" height="150"><metadata><rdf:RDF><cc:Work><dc:format>image/svg+xml</dc:format><dc:type rdf:resource="http://purl.org/dc/dcmitype/StillImage"/><dc:title>Adventurer</dc:title><dc:creator><cc:Agent><dc:title>Lisa Wischofsky</dc:title></cc:Agent></dc:creator><dc:source>https://www.instagram.com/lischis_adventures/</dc:source><cc:license rdf:resource="https://creativecommons.org/licenses/by/4.0/"/></cc:Work><cc:License rdf:about="https://creativecommons.org/licenses/by/4.0/"><cc:permits rdf:resource="https://creativecommons.org/ns#Reproduction"/><cc:permits rdf:resource="https://creativecommons.org/ns#Distribution"/><cc:permits rdf:resource="https://creativecommons.org/ns#DerivativeWorks"/><cc:requires rdf:resource="https://creativecommons.org/ns#Notice"/><cc:requires rdf:resource="https://creativecommons.org/ns#Attribution"/></cc:License></rdf:RDF></metadata><mask id="avatarsRadiusMask"><rect width="762" height="762" rx="0" ry="0" x="0" y="0" fill="#fff"/></mask><g mask="url(#avatarsRadiusMask)"><path d="M396.01 164.85c37.82 4.9 74.21 19.64 104.8 42.39 6.15 4.84 12.48 9.33 18.02 14.92 23.77 21.98 42.73 49.02 55.13 78.95 9.35 22.31 14.72 46.04 16.64 70.14 6.62.81 13.05 2.14 19.12 5 15.54 6.93 27.08 20.94 31.78 37.21 2.63 9.56 3.56 19.75 1.72 29.55-2.96 18.76-13.72 36.13-29.37 46.92-10.94 7.65-24.49 12.03-37.86 11.68-5.13-.05-10.04-1.6-15.13-1.79-1.85 2.17-3.23 4.84-4.76 7.25-18.66 29.62-44.57 54.51-74.64 72.4-28.1 16.73-59.9 27.16-92.46 30.32-11.08.7-21.87 2.05-32.98.74-51.69-2.3-102.07-23.44-140.15-58.43-29.03-26.55-50.84-60.83-62.54-98.39-7.09-22.85-10.62-46.78-10.07-70.71.52-40.34 12.53-80.58 33.94-114.76 19.1-30.81 45.91-56.58 77.2-74.83 29.63-17.28 63.35-27.68 97.59-29.87 14.66-1.47 29.44-.37 44.02 1.31Z" fill="#000"/><path d="M363 169.06c48.47-1.39 97.32 14.7 135.81 44.12 6.55 4.06 11.72 9.49 17.36 14.64 24.33 22.63 43.2 50.95 54.93 82.02 7.43 19.61 11.86 40.2 13.56 61.09-8.89.74-17.34 2.34-25.38 6.38-2.19 1.03-1.89 4.95.68 5.23 2.35.23 4.98-1.51 7.24-2.2 14.62-5.37 31.32-4.35 44.78 3.68 11.69 6.78 20.09 18.16 23.89 31.06 2.6 8.25 2.68 17.41 1.76 25.95-2.5 17.35-12.35 33.73-26.73 43.81-15.71 11.33-37.17 14.64-54.93 6.2-3.17-1.43-5.94-3.58-9.08-5.05-2.95-1.09-4.88 2.79-2.7 4.75 3.17 2.76 7.34 4.52 11 6.56-20.14 34.15-49.45 62.7-84.41 81.47-30.2 16.31-64.44 25.53-98.78 26.15-27.63.72-55.33-4.04-81.21-13.72-30.32-11.24-57.84-29.43-80.37-52.6-22.67-23.37-39.92-51.88-50.2-82.77-14.96-44.64-14.91-94.01.27-138.59 11.05-33.06 30.28-63.21 55.37-87.39 29.67-28.73 67.65-48.54 108.13-56.67 12.8-2.52 25.94-4.24 39.01-4.12Z" fill="rgba(242, 211, 177, 1)"/><path d="M605.03 404.4c2.63-.1 3.44 3.8 1.36 4.98-3.69 1.83-7.82 2.77-11.64 4.35-5.82 2.04-11.28 4.76-16.68 7.72 4.29 2.34 8.86 4.74 12.71 7.76 2.58 2.09 4.85 4.35 5.33 7.8-.26 3.59-2.73 6.55-5.45 8.69-5.86 4.66-13.92 7.18-20.79 10.26-1.75.62-4.43 1.99-5.59-.26-1.02-1.74-.06-3.11 1.57-3.87 6.65-3.3 14.86-5.62 20.79-10.16 1.37-1.14 3.39-2.74 3.61-4.62-4.07-5.63-12.42-8.59-18.23-12.09-2.34-1.72-2.29-4.24-.16-6.13 7.27-5.64 16.98-9.26 25.57-12.38 2.42-.83 5.03-1.95 7.6-2.05Z" fill="#000"/><g transform="translate(-161 -83)"><path d="M559.011 424.1c16.41.51 32.33 7.36 43.93 18.98 5.76 5.61 9.95 12.31 13.6 19.43 7.87-5.09 15.8-10.08 23.76-15.03 1.25 1.09 2.42 2.25 3.56 3.46-3.17 3.52-7.07 5.39-10.96 7.93-4.77 3.03-9.55 6.03-14.3 9.08 3.17 10 4.53 20.39 2.8 30.81-2.05 14.92-9.59 28.86-20.75 38.93-11.58 10.56-26.96 16.72-42.65 16.84-12.98.34-26.07-3.48-36.9-10.63-12.44-8.06-21.81-20.51-26.4-34.58-4.57-14.5-4.06-30.74 1.79-44.81 5.41-13.38 15.56-24.82 28.12-31.91 10.31-6.04 22.51-8.85 34.4-8.5Z" fill="#000"/><path d="M549.27 430.26c14.65-1.77 29.27 1.62 41.4 10.04 12.46 8.48 21.37 21.87 24.46 36.62 2.62 12.36 1.24 25.52-4.07 37.02-6.12 13.64-17.67 24.9-31.58 30.43-10.22 4.23-21.57 5.65-32.48 3.67-16.41-2.65-31.48-12.62-40.35-26.68-5.6-8.77-8.74-18.94-9.37-29.31-.61-14.46 4.23-29.15 13.41-40.36 9.47-11.77 23.62-19.56 38.58-21.43Z" fill="#fff"/><path d="M414.051 453.95c10.75 6.03 19.24 15.78 23.87 27.2 3.49 8.51 4.54 17.78 3.61 26.9-1.79 17.13-12.16 32.86-27.1 41.38-16.49 9.64-37.66 9.77-54.3.41-14.42-7.99-24.75-22.55-27.4-38.84-1.81-8.9-.64-17.67 1.89-26.29-5.82-3.63-12.13-6.62-17.74-10.55-1.95-1.1-1.44-4.12.68-4.64 1.65-.48 3.18.59 4.6 1.28 4.83 2.83 9.64 5.66 14.48 8.47 6.58-14.13 18.65-25.2 33.59-29.87 14.42-4.66 30.66-2.95 43.82 4.55Z" fill="#000"/><path d="M378.27 453.29c15.03-2.78 30.94 1.95 42.11 12.35 10.06 9.24 15.9 22.72 15.93 36.37-.17 8.05-2.22 16.17-6.07 23.26-6.94 12.82-19.64 22.21-33.98 24.9-8.07 1.72-16.23 1.09-24.08-1.36-19.1-5.88-33.31-23.78-34.38-43.79-.98-12.79 3.48-25.72 11.85-35.41 7.31-8.53 17.57-14.32 28.62-16.32Z" fill="#fff"/><path d="M527.27 466.19c7.37-.9 15.21 1.78 20.25 7.29 3.82 4.17 6.28 9.79 6.41 15.47.28 7.26-3.03 14.7-8.73 19.24-6.96 5.83-17.24 6.92-25.36 2.96-8.64-4.1-14.23-13.61-13.38-23.18.7-11.14 9.74-20.51 20.81-21.78ZM358.54 480.84c11.41-3.87 24.34 3 27.54 14.59 3.77 11.69-4.02 24.86-16.03 27.32-10.63 2.65-22.19-3.54-25.66-13.94-3.92-11.13 2.75-24.59 14.15-27.97Z" fill="#000"/></g><g transform="translate(-161 -83)"><g fill="#000"><path d="M606.99 397.59c1.52-.4 3.26.6 4.74.97-.11 1.2-.17 2.45-.47 3.61-1.58 1.49-3.57 2.61-5.39 3.78-22.77 14.6-46.18 28.4-70.32 40.63-11.53 5.73-23.34 11.3-35.55 15.44-6.86 2.19-13.72 4.28-21.01 3.44-3.31-.31-6.16-3.02-6.23-6.43-.04-4.22 3-8.6 5.08-12.15 1.28-2.68 4.5-3.04 6.99-4.12 37.24-13.75 74.44-27.65 111.67-41.45 3.48-1.23 6.91-2.81 10.49-3.72ZM338.99 432.64c29.88 5.94 60.13 12.03 90.02 18.02 2.27.32 4.6.07 6.85.45 2.45 2.3 3.64 6.21 4.54 9.37 1.17 4.09-.15 8.77-3.91 11.01-4 2.62-9.91 2.16-14.5 1.89-8.74-1-17.41-3.8-25.68-6.74-19.61-7.16-38.69-16.93-56.97-26.97-1.67-.96-3.68-1.94-4.79-3.55-.38-2.88 1.85-4.16 4.44-3.48Z"/></g></g><g transform="translate(-161 -83)"><path d="M397.16 574.5c18.25-.16 37.53-.27 55.83-.38 15.65-.52 31.34-.22 47-.46 3.82-.04 7.34-.21 10.91 1.4 4.24 1.92 7.84 6.05 7.61 10.93.36 6.41-5.56 10.94-11.5 11.3-33 .13-66.01.4-99.01.56-4.37-.09-8.11.99-12.35-.48-.27-.76-.54-1.53-.82-2.29 1.66-5.65 2.44-11.14-.14-16.68-1.03-2.03.23-3.9 2.47-3.9Z" fill="#000"/><path d="M510.489 581.58c2.16 1.83 3.27 4.85 1.35 7.29-2.42 3.37-7.56 2.6-11.15 2.54-.04-4-.07-8.01-.08-12.02 3.35.28 7.2-.21 9.88 2.19ZM401.711 580.18c1.68-.01 3.36-.02 5.03-.02.16 4.03.22 8.05.15 12.09-1.71.01-3.41.01-5.12.02.41-4.09.45-8.01-.06-12.09ZM412.52 580.16c4.52-.07 9.04-.06 13.57-.04.12 3.99.23 7.99.27 11.99-4.4.08-8.8.09-13.2.09-.22-4.02-.39-8.03-.64-12.04ZM432.141 579.88c6.32-.04 12.64-.05 18.96-.1.07 4.01.1 8.02.09 12.03-6.33-.07-12.64.29-18.96.24-.13-4.06-.17-8.11-.09-12.17ZM456.801 579.78c6.23-.08 12.46-.06 18.69-.14.13 4.01.25 8.03.3 12.04-6.2.13-12.4.03-18.6.18-.29-4.03-.39-8.05-.39-12.08ZM481.391 579.5c4.48.17 8.96.07 13.44.03.03 4.01.06 8.03.01 12.05-4.43.01-8.85.13-13.28-.01-.05-4.03-.29-8.04-.17-12.07Z" fill="#fff"/></g><g transform="translate(-161 -83)"/><g transform="translate(-161 -83)"><path d="M675.35 160.39c1.25-.92 3.18-.83 4.53-.19 9.97 4.58 18.45 12.41 24.29 21.67 5.14 8.06 7.91 17.14 9.35 26.52 3.18 1.68 4.91 4.74 5.87 8.09 1.43 6.29.85 13.23-.17 19.54-2.72 13.24-8.18 26.12-16.08 37.11l-.11.78c7.96 8.03 14.53 17.21 19.89 27.16l.45.4c9.08 1.38 16.78 7.76 22.57 14.56 9.3 11.11 15.21 25.05 19.34 38.81 4.91 17.19 7.33 35.22 7.02 53.1-.14 1.19 1.23 2 1.49 3.16 2.81 7.58 7.09 13.92 11.43 20.65 3.19 4.82 6.29 9.63 9.8 14.24 12.14 15.7 23.64 31.42 32.96 49.01 9.77 18.23 15.92 37.82 19.67 58.11 3.03 18.18 4.53 38.97-1.18 56.75-5.33 16.59-15.92 30.33-29.07 41.52-1.8 1.6-5.25 2.46-6.83.15-1.04-1.6.35-3.45 1.05-4.9 6.58-10.17 7.97-23.86 9.17-35.63-.14-7.27.62-14.86-.81-21.98-.43-2.12-.09-5.24-1.48-6.96-.35 1.69-1.09 3.17-1.79 4.73-7.58 16.6-18.82 30.46-31.85 43.08-15.59 14.69-32.81 27.39-51.93 37.09-2 1.09-4.46-.88-4.22-2.97 0-1.38 1.13-2.37 1.91-3.4 9.7-12.82 14.82-27.1 19.15-42.42-13.58 5.89-27.19 15.78-39.22 24.46-10.72 7.83-21.9 17.03-27.56 29.36-1.7 3.25-2.38 6.84-3.73 10.18-1.89 2.39-5.13 1.15-7.26-.19-9.01-4.35-16.74-11.55-22.22-19.88-1.03-2.68-4.04-6.98-2.35-9.72 28.76-18.39 52.91-44.49 69.94-74.03.73-2.46 2.97-2.78 5.13-1.97 16.3 5.12 34.23 1.94 48.22-7.66 12.12-8.1 21.25-20.59 25.6-34.48 3.02-8.98 3.49-18.89 2.38-28.25-1.82-11.94-7.28-23.26-16.03-31.67-8.97-8.76-21.17-13.9-33.69-14.37-.93-.1-1.72.04-2.37.4-.64 11.78-2.8 23.63-5.29 35.14-6.39 27.15-16.98 53.45-31.55 77.26-11.34 18.41-25.54 36.06-42.64 49.43-1.22 1.09-3.15.88-4.52.22-.83-1.99-.76-3.44.96-4.82 13.2-24.39 18.76-52.06 23.62-79.11 4.38-27.89 7.34-56.23 7.75-84.47.84-11.33-.1-24.15-.17-35.02-2.2 2.12-3.61 5.75-6.24 7.47-2.05.96-4.48.01-4.7-2.4.87-14.29-1.1-27.85-3.24-41.93-1.74 6.33-4.26 12.36-5.81 18.75-1.25 2.82-4.17 2.3-5.76.06-4.8-12.41-9.05-25.22-12.96-37.94-2.28-8.29-4.64-16.52-7.54-24.62l-.85.11c-1.23 3.75-2.11 7.6-3.21 11.39-.54 1.89-2.6 3.29-4.45 3.62-2.8.08-4.6-2.47-6.26-4.37-6.97-8.91-14.65-17.96-20.15-27.85l-.99.17c-2.17 5.33-3.19 10.9-4.78 16.38-1.87 3.16-7.59 3.42-10.85 3.31-6.02-1.06-12.05-4.45-16.7-8.4-6.5-6.13-11.84-13.48-15.35-21.73-1.86.05-3.42 3.98-4.22 5.52-.97 3.4-1.17 7.17-5.72 7.16-4.47-.96-8.7-2.96-13.14-4.14-10.5-2.97-21.96-4.72-32.87-3.57-4.55.94-8.5 2.69-12.82 4.33-1.55.47-3.66.64-5.05-.34-1.67-1.49-2.2-3.83-1.67-5.97 1-5.88 3.99-10.57 6.86-15.73.35-.48.52-1.05.5-1.72l-.39-.1c-17.73 8.06-33.61 21.34-50.57 31.06-1.73.66-3.29.25-4.14-1.46-.9-2.68.82-4.25 1.24-6.73-43.34 19.36-85.98 45.25-119.92 78.71-17.26 17.35-33.6 37.85-41.73 61.2-.91 2.83-3.69 3.34-5.55 1.03-4.83-6.9-8.3-14.93-9.68-23.26-3.08-14.63.38-30.79 6.69-44.17 11.86-24.55 31.64-42.52 54.41-56.84-.15-.83-.35-1.65-.61-2.46-2.84-7.87-2.13-16.48.78-24.22 5.33-14.18 17.09-25.93 28.81-35.12 22.78-17.42 50.27-29.03 77.85-36.36 22.06-5.64 45.21-8.76 68.01-7.7 2.95-.05 5.97-.84 8.86-1.35 3.74-.66 7.44-.81 11.14-1.61 6.27-.73 12.72-.6 18.99-1.25 9.33-.23 18.71.53 28.02 1.08 2.83.4 5.57.98 8.45 1.03-2.46-11.28-2.87-23.93 3.31-34.15 5.81-9.95 16.27-15.67 27.23-18.16 10.6-2.63 22.18-2.15 33-1.39 15.41 1.76 30.36 5.68 45 10.71-1.92-7.4-5.81-14.47-10.87-20.21-1.15-1.08-1.11-3.49.22-4.43Z" fill="#000"/><path d="M686.62 171.16c16.11 11.86 23.81 33.49 20.61 52.97-1.93 14.17-9.75 27.43-21.27 35.96-3.56-1.78-7.01-4.33-10.86-5.42 8.71-9.09 14.43-20.47 17.31-32.66 3.85-16.76 2.44-35.57-5.79-50.85Z" fill="rgba(175, 175, 175, 1)"/><path d="M650.871 181.57c12.52 2.27 24.7 5.75 36.64 10.15 1.38 6.43 1.89 13.87.67 20.4-1.38 14.83-7.82 29.25-18.42 39.79-4.37-.72-9.91-3.12-14.76-3.3-3.85-.57-8.42-1.38-12.18-.17-15.94-8.73-33.05-14.32-50.8-17.91-2.69-.97-6.15-.39-8.49-1.97-2.99-11.62-3.63-23.29 3.38-33.63 5.99-8.35 15.43-12.34 25.21-14.25 13.04-2.41 25.79-1.35 38.75.89ZM713.53 217.66l.05.12.06.12c2.06 6.1.57 13.91-.72 20.11-2.83 11.19-7.38 21.83-14.09 31.27l-.58.25c-2.21-2.09-4.67-3.95-7.1-5.78 1.04-1.7 3.49-3.1 4.85-4.74 10.7-10.68 17.49-26.09 17.45-41.23l.08-.12ZM541 231.68c29.15-.38 59.57 4.18 86.5 15.7 12.26 5.36 23.98 12.09 33.28 21.85 1.6 1.4 2.93 1.26 4.66.18.43-1.47.59-3.03-.61-4.18-4.21-4.63-8.26-7.37-12.79-11.16 17.63 1.63 33.99 11.16 46.44 23.45 24.56 24.55 36.67 61.15 31.25 95.47-.24 2.47-2.12 6.42-.13 8.43 1.61 1.12 3.91.53 4.46-1.45 1.72-5.72 1.99-12.04 2.66-17.97.84-18.47-2.94-37.13-10.49-53.98 3.75 1.7 7.22 3.71 10.29 6.47 9.6 8.71 15.99 21.44 20.44 33.43 3.44 9.7 6.01 19.89 7.53 30.06 1.37 6.99 1.27 13.98 2.14 21.03.18 6.29.32 12.75-.54 19-.75 12.47-3.09 25.87-7.87 37.41-3.48-.73-7.28-1.37-10.84-1.19-.99-5.5.89-12.26-1.08-17.52-2.18-1.34-5.01-.66-4.85 2.27 1.01 30.22-5.49 60.96-16.14 89.15-11.15 28.67-27.41 56.84-49.36 78.62l-.84.2c6.22-14.47 10.08-30.09 13.49-45.45 5.31-25.08 8.79-50.95 10.63-76.49 1.8-21.45 1.81-43.49 1.22-65.01-.55-10.37-1.49-20.75-3.07-31.02-.23-1.46-.15-2.92-1.7-3.64-1.95-1.47-4.32.45-4.09 2.64.71 6.67 1.96 13.38 2.22 20.08-1.11 2.99-2.59 5.89-4.17 8.66-.06-5.1-.21-10.18-.72-15.26-1.11-5.13-1.14-10.35-2.4-15.45-.51-5.11-2.28-9.87-2.45-15.05-.96-2.47-3.54-3.32-5.38-1.14-2.03 7.36-4.2 14.86-7.14 21.93-3.41-10.35-7.02-20.43-10.1-30.92-2.91-10.12-5.71-21.28-10.45-30.76-1.17-2.39-3.99-3.13-5.68-.79-1.94 5.89-4.32 11.56-5.6 17.68-1.15.4-1.9-1.37-2.58-2.05-6.44-8.53-12.99-16.4-18.31-25.74-1.59-2.28-2.78-5.73-5.78-6.37-1.92-.03-3.4 1.5-4.26 3.07-2.85 6.06-4.52 12.38-6.01 18.85-6.69 1.94-12.07-1.55-17.34-5.17-6.72-5.81-12.1-13.27-15.5-21.48-.88-1.8-1.58-3.78-3.94-3.78-2.53-.08-3.86 1.56-5.62 3.09-2.94 2.95-4.51 6.45-5.81 10.34-2.21.4-5.17-1.82-7.43-2.14-7.49-2.58-15.25-4.37-23.15-5.13-9.72-1.66-19.59-.35-28.44 4.06l-.17-1.28c2-6.05 5.97-11.65 8.54-17.32.88-1.88.69-3.64-.6-5.27-2.45-1.59-5.87-.67-8.41.27-16.14 6.76-30.75 18.73-45.77 27.76.85-1.61 2.06-2.72 1.72-4.72-.17-2.37-2.92-3.34-4.89-2.2-34.75 14.89-68.28 33.84-98.21 57-16.82 13.15-32.94 28.01-46.44 44.59-9.64 11.9-17.72 24.9-23.75 38.98-4.13-7.29-6.63-15.83-6.74-24.32-.74-14.55 4.42-29.05 11.79-41.4 8.81-14.58 21.24-27.01 34.88-37.1 22.85-16.73 49.75-27.75 77.67-32.26 2-.68 2.52-3.07 1.35-4.77-2.23-1.65-5.82.02-8.4.15-13.61 2.77-27.27 6.97-39.97 12.64-5.42 2.11-10.66 5.43-15.9 7.61-.94-3.5-2.09-7.23-1.89-10.88.51-6.11 2.43-11.91 5.44-17.23 5.26-9.12 12.48-16.73 20.57-23.39 11.19-9.22 24-16.73 37.1-22.88 15.7-7.35 32.17-12.91 49.04-16.83 12.91-2.68 26.3-5.4 39.52-5.4-10.56 4.07-20.56 9.11-29 16.8-1.24 1-1.19 3.11-.49 4.4 1.69 1.43 3.02 1 4.56-.31 6.57-5.91 14.24-10.3 22.37-13.66 19.6-8.15 40.47-11.04 61.53-11.81Z" fill="rgba(175, 175, 175, 1)"/><path d="m771.87 420.34.15.19c4.71 8.47 9.82 16.22 15.16 24.3 6.02 8.58 12.65 16.7 18.64 25.31 8.93 12.78 17.219 26.4 23.409 40.73 3.88 9.02 6.991 18.64 9.461 28.13 2.6 10.46 4.799 21.22 5.349 32.01.87 7.03 1.021 14.43.031 21.45-1.33 17.85-10.2 34.85-22.82 47.37 2.9-8.61 4.369-17.78 5.039-26.82.26-10.01.691-20.75-1.509-30.54-.45-3.26-1.41-6.58-2.95-9.49 1.21-3.86 1.539-8.01 1.959-11.99-.13-2.53-3.669-3.21-4.769-.93-1.12 3.3-.671 6.74-1.971 10.04-6.04 21.55-20.34 40.32-36.26 55.67a227.64 227.64 0 0 1-40.44 30.65c3.18-5.42 6.111-10.93 8.101-16.91 2.55-6.82 5.209-14.25 6.589-21.41.39-2.15 1.82-3.63.57-5.76-1.13-1.54-4.039-.96-5.529-.31-14.24 6.29-26.9 14.54-39.56 23.51-6.76 4.97-13.391 9.67-19.351 15.65-7.61 7.32-12.989 15.64-16.349 25.67-7.41-3.24-13.47-8.98-18.44-15.26-1.46-1.87-2.51-3.89-3.11-6.18 21.5-14.23 40.46-32.63 55.66-53.45 4.72-6.19 8.54-12.88 12.84-19.3 2.83.06 5.569.66 8.329 1.25 6.99 1.03 14.011.88 20.901-.72 25.06-5.13 45.189-25.53 51.599-50.06 5.42-18.77 2.001-40.28-9.779-56.02-7.13-9.55-17.3-16.88-28.74-20.3 4.33-11.8 6.52-23.98 7.79-36.48Z" fill="rgba(175, 175, 175, 1)"/><path d="M310.869 497.12c1.65 1.65 1.21 3.7 1.65 5.87 5.33 35 19.36 68.58 40.48 97.01 19.73 26.6 45.7 48.57 75.1 63.8 2.53.79 3.21 4.81.94 6.3-2.56 1.35-5.29 2.2-8.02 3.12-16.94 4.72-35.82 3.85-52.9.19-2.54-.41-4.53-1.56-7.06-1.35.73 4.07 2.12 7.98 4.53 11.37.87 1.48 2.43 2.74 1.59 4.61-1.5 2.63-4.38 1.31-6.48.31-23.49-9.61-42.5-29.2-50.78-53.26l-.8.04c-6.14 6.18-11.66 13.08-16.96 19.99-3.54 5.02-7.49 9.92-9.29 15.88-.54 2.62-4.06 2.32-5.11.18-2.18-4.05-3.35-8.83-4.88-13.16-7.7-27.77-6.32-58.07-.23-86.02 6.01-26.48 16.59-52.68 32.54-74.79 1.43-2.18 4.19-2.26 5.68-.09Z" fill="#000"/><path d="m306.48 505.25.48.15.19.08c1.36 9.66 3.7 19.28 6.48 28.64 16.45 55.67 55.43 104.11 106.47 131.87.52.25.99.59 1.41 1.03-17.53 5.64-37.85 4.22-55.53.01-2.36-.57-5.33-2.03-7.91-1.77-1.48.1-2.23 1.35-2.42 2.7-.27 4.5.83 8.63 2.34 12.8-14.32-6.86-26.77-18.09-35.08-31.64-8.87-14.31-12.93-31.36-11.41-48.13.43-2.63 1.04-5.38 1.01-8.03-.2-2.43-3.61-3.14-5.01-1.22-.79 1.98-1.16 4.16-1.34 6.27-1.16 10.1-.61 20.2 1.64 30.11-9.97 10.29-19.18 21.7-26.79 33.84l-.77-.09c-4.91-13.64-6.32-27.49-7.02-41.87-.12-40.24 11.36-80.9 33.26-114.75Z" fill="rgba(175, 175, 175, 1)"/></g></g></svg>